<svg width="356" height="188" viewBox="0 0 356 188" fill="none" xmlns="http://www.w3.org/2000/svg">
<g clip-path="url(#clip0_1243_166)">
<path d="M44.2754 0C19.8228 0 0 19.8247 0 44.2798V143.72C0 168.175 19.8228 188 44.2754 188H122.565C126.483 188 130.356 187.167 133.928 185.556L142.67 181.613C147.317 179.517 152.356 178.434 157.453 178.434H200.126C203.911 178.434 207.656 179.211 211.129 180.718L222.642 185.715C226.115 187.222 229.86 188 233.645 188H311.725C336.177 188 356 168.175 356 143.72V44.2798C356 19.8248 336.177 0 311.725 0H233.645C229.86 0 226.115 0.777674 222.642 2.2848L211.129 7.28157C207.656 8.7887 203.911 9.56637 200.126 9.56637H157.453C152.356 9.56637 147.317 8.4826 142.67 6.38692L133.928 2.44398C130.356 0.833075 126.483 0 122.565 0H44.2754Z" fill="#FFEC89"/>
<Path d="M35 67H315" stroke="black" strokeOpacity="0.3" strokeLinecap="round"/>
</g>
<defs>
<clipPath id="clip0_1243_166">
<rect width="356" height="188" rx="40" fill="white"/>
</clipPath>
</defs>
</svg>
