<svg width="390" height="114" viewBox="0 0 390 114" fill="none" xmlns="http://www.w3.org/2000/svg">
<path d="M0 57.23C0 27.8319 23.8319 4 53.23 4H133.911C138.444 4 142.929 4.92757 147.091 6.72564L155.812 10.4938C161.226 12.833 167.061 14.0397 172.959 14.0397H218.893C223.272 14.0397 227.607 13.1743 231.65 11.4933L243.548 6.5464C247.592 4.86538 251.927 4 256.306 4H336.77C366.168 4 390 27.8319 390 57.23V80.77C390 99.1224 375.122 114 356.77 114H33.23C14.8776 114 0 99.1224 0 80.77V57.23Z" fill="black"/>
<path d="M174.953 4H215.047" stroke="#D7D7D7" stroke-width="8" stroke-linecap="round"/>
</svg>
