<svg width="405" height="113" viewBox="0 0 405 113" fill="none" xmlns="http://www.w3.org/2000/svg">
<path d="M182 4H223.944" stroke="#A7A7A7" stroke-width="8" stroke-linecap="round"/>
<path d="M0 34C0 17.4315 13.4315 4 30 4H140.52C144.734 4 148.9 4.8877 152.748 6.60528L164.899 12.0289C168.747 13.7464 172.913 14.6341 177.127 14.6341H225.553C229.341 14.6341 233.095 13.9166 236.617 12.5194L252.758 6.1148C256.28 4.71758 260.034 4 263.822 4H375C391.569 4 405 17.4315 405 34V83C405 99.5685 391.569 113 375 113H30C13.4315 113 0 99.5685 0 83V34Z" fill="#1A1A1A"/>
</svg>
