<svg width="428" height="802" viewBox="0 0 428 802" fill="none" xmlns="http://www.w3.org/2000/svg">
<path d="M0 57.23C0 27.8318 23.8319 4 53.23 4H147.17C151.998 4 156.769 5.05246 161.15 7.08411L171.349 11.8138C177.048 14.4569 183.254 15.826 189.536 15.826H240.422C245.088 15.826 249.702 14.8432 253.964 12.9414L267.536 6.88458C271.798 4.98286 276.412 4 281.078 4H374.77C404.168 4 428 27.8319 428 57.23V768.77C428 787.122 413.122 802 394.77 802H33.23C14.8776 802 0 787.122 0 768.77V57.23Z" fill="#1A1A1A"/>
<path d="M192 4H236" stroke="#959595" stroke-width="8" stroke-linecap="round"/>
</svg>
