<svg width="117" height="108" viewBox="0 0 117 108" fill="none" xmlns="http://www.w3.org/2000/svg">
<g filter="url(#filter0_d_313_334)">
<mask id="mask0_313_334" style="mask-type:alpha" maskUnits="userSpaceOnUse" x="-45" y="0" width="158" height="158">
<circle cx="34" cy="79" r="79" fill="white"/>
</mask>
<g mask="url(#mask0_313_334)">
<circle cx="15.8363" cy="3.4626" r="3.4626" fill="white"/>
<circle cx="15.8363" cy="24.9306" r="3.4626" fill="white"/>
<circle cx="15.8363" cy="46.3989" r="3.4626" fill="white"/>
<circle cx="15.8363" cy="67.8669" r="3.4626" fill="white"/>
<circle cx="15.8363" cy="89.3352" r="3.4626" fill="white"/>
<circle cx="15.8363" cy="110.803" r="3.4626" fill="white"/>
<circle cx="35.2269" cy="3.4626" r="3.4626" fill="white"/>
<circle cx="35.2269" cy="24.9306" r="3.4626" fill="white"/>
<circle cx="35.2269" cy="46.3989" r="3.4626" fill="white"/>
<circle cx="35.2269" cy="67.8669" r="3.4626" fill="white"/>
<circle cx="35.2269" cy="89.3352" r="3.4626" fill="white"/>
<circle cx="35.2269" cy="110.803" r="3.4626" fill="white"/>
<circle cx="54.6174" cy="3.4626" r="3.4626" fill="white"/>
<circle cx="54.6174" cy="24.9306" r="3.4626" fill="white"/>
<circle cx="54.6174" cy="46.3989" r="3.4626" fill="white"/>
<circle cx="54.6174" cy="67.8669" r="3.4626" fill="white"/>
<circle cx="54.6174" cy="89.3352" r="3.4626" fill="white"/>
<circle cx="54.6174" cy="110.803" r="3.4626" fill="white"/>
<circle cx="74.008" cy="3.4626" r="3.4626" fill="white"/>
<circle cx="74.008" cy="24.9306" r="3.4626" fill="white"/>
<circle cx="74.008" cy="46.3989" r="3.4626" fill="white"/>
<circle cx="74.008" cy="67.8669" r="3.4626" fill="white"/>
<circle cx="74.008" cy="89.3352" r="3.4626" fill="white"/>
<circle cx="74.008" cy="110.803" r="3.4626" fill="white"/>
<circle cx="93.3985" cy="3.4626" r="3.4626" fill="white"/>
<circle cx="93.3985" cy="24.9306" r="3.4626" fill="white"/>
<circle cx="93.3985" cy="46.3989" r="3.4626" fill="white"/>
<circle cx="93.3985" cy="67.8669" r="3.4626" fill="white"/>
<circle cx="93.3985" cy="89.3352" r="3.4626" fill="white"/>
<circle cx="93.3985" cy="110.803" r="3.4626" fill="white"/>
<circle cx="112.789" cy="3.4626" r="3.4626" fill="white"/>
<circle cx="112.789" cy="24.9306" r="3.4626" fill="white"/>
<circle cx="112.789" cy="46.3989" r="3.4626" fill="white"/>
<circle cx="112.789" cy="67.8669" r="3.4626" fill="white"/>
<circle cx="112.789" cy="89.3352" r="3.4626" fill="white"/>
<circle cx="112.789" cy="110.803" r="3.4626" fill="white"/>
</g>
</g>
<defs>
<filter id="filter0_d_313_334" x="-49" y="0" width="166" height="165.202" filterUnits="userSpaceOnUse" color-interpolation-filters="sRGB">
<feFlood flood-opacity="0" result="BackgroundImageFix"/>
<feColorMatrix in="SourceAlpha" type="matrix" values="0 0 0 0 0 0 0 0 0 0 0 0 0 0 0 0 0 0 127 0" result="hardAlpha"/>
<feOffset dy="4"/>
<feGaussianBlur stdDeviation="2"/>
<feComposite in2="hardAlpha" operator="out"/>
<feColorMatrix type="matrix" values="0 0 0 0 0 0 0 0 0 0 0 0 0 0 0 0 0 0 0.25 0"/>
<feBlend mode="normal" in2="BackgroundImageFix" result="effect1_dropShadow_313_334"/>
<feBlend mode="normal" in="SourceGraphic" in2="effect1_dropShadow_313_334" result="shape"/>
</filter>
</defs>
</svg>
