<svg width="414" height="118" viewBox="0 0 414 118" fill="none" xmlns="http://www.w3.org/2000/svg">
<g filter="url(#filter0_d_313_146)">
<path fill-rule="evenodd" clip-rule="evenodd" d="M0 51L23 64.0465C46 77.093 92 102 138 96.0698C184 90.1395 230 51 276 47.4419C322 42.6977 368 72.3488 391 87.7674L414 102V0H391C368 0 322 0 276 0C230 0 184 0 138 0C92 0 46 0 23 0H0V51Z" fill="white"/>
<path fill-rule="evenodd" clip-rule="evenodd" d="M0 51L23 64.0465C46 77.093 92 102 138 96.0698C184 90.1395 230 51 276 47.4419C322 42.6977 368 72.3488 391 87.7674L414 102V0H391C368 0 322 0 276 0C230 0 184 0 138 0C92 0 46 0 23 0H0V51Z" stroke="black"/>
</g>
<defs>
<filter id="filter0_d_313_146" x="-8" y="0" width="430" height="118" filterUnits="userSpaceOnUse" color-interpolation-filters="sRGB">
<feFlood flood-opacity="0" result="BackgroundImageFix"/>
<feColorMatrix in="SourceAlpha" type="matrix" values="0 0 0 0 0 0 0 0 0 0 0 0 0 0 0 0 0 0 127 0" result="hardAlpha"/>
<feOffset dy="8"/>
<feGaussianBlur stdDeviation="4"/>
<feComposite in2="hardAlpha" operator="out"/>
<feColorMatrix type="matrix" values="0 0 0 0 0 0 0 0 0 0 0 0 0 0 0 0 0 0 0.11 0"/>
<feBlend mode="normal" in2="BackgroundImageFix" result="effect1_dropShadow_313_146"/>
<feBlend mode="normal" in="SourceGraphic" in2="effect1_dropShadow_313_146" result="shape"/>
</filter>
</defs>
</svg>
